John Ford's fine direction distinguishes this highly fictionalized account of the early life of Abraham Lincoln. The film shows Lincoln (Henry Fonda) as he rises from a country boy born in a log cabin to a lawyer in Springfield, Illinois defending two young men unjustly accused of murder. The film, produced by Darryl F. Zanuck, received an Academy Award nomination for "Best Original Screenplay" for its screenwriter Lamar Trotti. Henry Fonda perhaps the most American of actors, is at his best playing Lincoln as the quintessential, compassionate American hero. 

   General
      Complete name : Young Mr. Lincoln.avi
      Format : AVI
      Format/Info : Audio Video Interleave
      File size : 1.21 GiB
      Duration : 1h 40mn
      Overall bit rate : 1 726 Kbps
      Writing application : FairUse Wizard - http://fairusewizard.com
      Writing library : The best and REALLY easy backup tool
   Video #0
      ID : 0
      Format : MPEG-4 Visual
      Format profile : AdvancedSimple@L5
      Format settings, BVOP : Yes
      Format settings, QPel : No
      Format settings, GMC : No warppoints
      Format settings, Matrix : Default (MPEG)
      Muxing mode : Packed bitstream
      Codec ID : XVID
      Codec ID/Hint : XviD
      Duration : 1h 40mn
      Bit rate : 1 525 Kbps
      Width : 640 pixels
      Height : 464 pixels
      Display aspect ratio : 1.379
      Frame rate : 23.976 fps
      Resolution : 24 bits
      Colorimetry : 4:2:0
      Scan type : Progressive
      Bits/(Pixel*Frame) : 0.214
      Stream size : 1.07 GiB (88%)
      Writing library : XviD 1.2.0.dev47 (UTC 2006-11-01)
   Audio #1
      ID : 1
      Format : AC-3
      Format/Info : Audio Coding 3
      Codec ID : 2000
      Duration : 1h 40mn
      Bit rate mode : Constant
      Bit rate : 192 Kbps
      Channel(s) : 1 channel
      Channel positions : C
      Sampling rate : 48.0 KHz
      Stream size : 138 MiB (11%)
      Alignment : Split accross interleaves
      Interleave, duration : 42 ms (1.00 video frame)
      Interleave, preload duration : 500 ms

English audio; English, Spanish and Portuguese subtitles

Criterion Collection rip

John Ford - Young Mr. Lincoln [1939]

IMDB: tt0032155